<svg width="41" height="33" viewBox="0 0 41 33" fill="none" xmlns="http://www.w3.org/2000/svg">
<path d="M5.45688 24V10.656H0.920875V8.304H12.7769V10.656H8.24088V24H5.45688ZM19.201 24.288C18.145 24.288 17.121 24.088 16.129 23.688C15.153 23.288 14.289 22.72 13.537 21.984L15.169 20.088C15.729 20.616 16.369 21.048 17.089 21.384C17.809 21.704 18.529 21.864 19.249 21.864C20.145 21.864 20.825 21.68 21.289 21.312C21.753 20.944 21.985 20.456 21.985 19.848C21.985 19.528 21.921 19.256 21.793 19.032C21.681 18.808 21.513 18.616 21.289 18.456C21.081 18.28 20.825 18.12 20.521 17.976C20.233 17.832 19.913 17.688 19.561 17.544L17.401 16.608C17.017 16.448 16.633 16.248 16.249 16.008C15.881 15.768 15.545 15.48 15.241 15.144C14.937 14.808 14.689 14.416 14.497 13.968C14.321 13.52 14.233 13.008 14.233 12.432C14.233 11.808 14.361 11.232 14.617 10.704C14.889 10.16 15.257 9.688 15.721 9.288C16.185 8.888 16.737 8.576 17.377 8.352C18.033 8.128 18.745 8.016 19.513 8.016C20.425 8.016 21.305 8.2 22.153 8.568C23.001 8.92 23.729 9.4 24.337 10.008L22.921 11.784C22.409 11.368 21.881 11.04 21.337 10.8C20.793 10.56 20.185 10.44 19.513 10.44C18.761 10.44 18.161 10.608 17.713 10.944C17.265 11.264 17.041 11.712 17.041 12.288C17.041 12.592 17.105 12.856 17.233 13.08C17.377 13.288 17.561 13.48 17.785 13.656C18.025 13.816 18.297 13.968 18.601 14.112C18.905 14.24 19.217 14.368 19.537 14.496L21.673 15.384C22.137 15.576 22.561 15.8 22.945 16.056C23.329 16.312 23.657 16.608 23.929 16.944C24.217 17.28 24.441 17.672 24.601 18.12C24.761 18.552 24.841 19.056 24.841 19.632C24.841 20.272 24.713 20.872 24.457 21.432C24.201 21.992 23.825 22.488 23.329 22.92C22.849 23.336 22.257 23.672 21.553 23.928C20.865 24.168 20.081 24.288 19.201 24.288ZM27.6951 24V8.304H31.8951C34.2951 8.304 36.1671 8.952 37.5111 10.248C38.8551 11.544 39.5271 13.488 39.5271 16.08C39.5271 17.376 39.3511 18.52 38.9991 19.512C38.6631 20.504 38.1671 21.336 37.5111 22.008C36.8711 22.664 36.0871 23.16 35.1591 23.496C34.2471 23.832 33.2071 24 32.0391 24H27.6951ZM30.4791 21.744H31.7031C33.3031 21.744 34.5271 21.288 35.3751 20.376C36.2391 19.448 36.6711 18.016 36.6711 16.08C36.6711 14.16 36.2391 12.76 35.3751 11.88C34.5111 11 33.2871 10.56 31.7031 10.56H30.4791V21.744Z" fill="black"/>
<circle cx="16.5" cy="30.5" r="2.5" fill="#3AA9F9"/>
<circle cx="23.5" cy="30.5" r="2.5" fill="#3AA9F9"/>
</svg>
