<svg width="162" height="40" viewBox="0 0 162 40" fill="none" xmlns="http://www.w3.org/2000/svg">
<path fill-rule="evenodd" clip-rule="evenodd" d="M17.8012 10.4899C17.7122 10.92 17.5688 11.2953 17.3347 11.5788C17.1602 11.477 17.0005 11.3602 17.0476 11.0343C17.3584 10.9131 17.269 10.387 17.8013 10.4898L17.8012 10.4899Z" fill="black"/>
<path fill-rule="evenodd" clip-rule="evenodd" d="M18.3038 14.8458C18.1304 14.9188 18.4344 14.9578 18.3397 15.1724C18.1659 15.203 18.2258 14.9972 18.0167 15.0635C18.0536 14.8097 18.0932 14.7915 18.0167 14.5554C17.8801 14.5988 17.6386 14.6886 17.4783 14.5917C17.434 14.4742 17.5944 14.5639 17.5501 14.4465C17.467 14.4835 17.383 14.5195 17.3707 14.6279C17.3392 14.7445 17.4637 14.7032 17.4783 14.7732C17.4914 14.9315 17.4132 14.9976 17.3348 15.0635C17.1512 14.983 17.0952 14.7736 17.0477 14.5554C17.0695 14.4927 17.2179 14.5581 17.2271 14.4828C17.264 14.3608 17.1155 14.4263 17.0477 14.4102C17.0209 14.2985 17.1462 14.3404 17.1195 14.2287C17.1255 14.15 16.9922 14.2122 16.94 14.1924C16.9241 13.9544 16.7669 13.8594 16.8323 13.539C16.9208 13.5438 17.0052 13.5445 17.0476 13.5027V12.8857C17.1787 12.8609 17.2096 12.7349 17.2989 12.6679C17.5243 12.6455 17.5247 12.8509 17.8013 12.7768V13.539C17.695 13.5888 17.618 13.6682 17.4783 13.6842V13.902C17.4911 13.998 17.6612 13.9348 17.6936 14.0109C17.7131 14.1516 17.4854 14.0423 17.4783 14.1561C17.4541 14.3847 17.8044 14.311 17.8372 14.1924C17.9329 14.2771 18.0843 14.3054 18.2319 14.3376C18.1846 14.6033 18.3509 14.6529 18.3755 14.8458H18.7703C18.7638 14.9249 18.7996 14.9612 18.878 14.9546V15.3902H18.6985C18.6719 15.5382 18.8142 15.5152 18.7703 15.6806C18.7279 15.7224 18.6435 15.7217 18.555 15.7169C18.571 15.4942 18.321 15.3223 18.5191 15.1361C18.5048 14.9811 18.3278 14.9909 18.3038 14.8457V14.8458Z" fill="black"/>
<path fill-rule="evenodd" clip-rule="evenodd" d="M18.232 15.7893C18.345 15.8068 18.3132 15.6779 18.4473 15.7167C18.4673 15.8053 18.5861 15.794 18.555 15.9345C18.1651 15.8427 18.1162 16.0956 17.8731 16.1522C17.7832 16.098 17.6769 16.0604 17.6937 15.8982C17.704 15.7634 17.8835 15.7998 17.8731 15.6441C17.8117 15.561 17.5992 15.6308 17.4783 15.6078C17.4951 15.4432 17.648 15.4164 17.586 15.1722C18.0217 15.0582 17.9601 15.4472 18.1602 15.5715C18.2732 15.589 18.1871 15.4051 18.2679 15.39C18.4473 15.4412 18.335 15.72 18.232 15.7893V15.7893Z" fill="black"/>
<path fill-rule="evenodd" clip-rule="evenodd" d="M18.7703 15.8256C18.8817 15.8218 18.8727 15.9398 19.0215 15.8982C18.9877 16.0897 19.1309 16.1021 19.201 16.1885C19.2069 16.4003 19.1559 16.6697 19.3086 16.733C19.1887 16.8537 19.2209 17.1282 18.9856 17.1323C18.966 17.0795 19.0275 16.9447 18.9497 16.9508C18.7935 16.9863 18.9177 17.3056 18.8779 17.4589C18.5554 17.4465 18.4056 17.2592 18.232 17.096C18.2036 16.9705 18.2719 16.9427 18.3038 16.8782C18.2879 16.7732 18.2281 16.7127 18.1243 16.6967C18.0205 16.758 17.8778 16.8825 17.7655 16.733C17.6524 16.7155 17.7386 16.8994 17.6578 16.9145C17.3674 16.6115 17.9408 16.3294 18.232 16.2611V16.4426C18.3664 16.4334 18.4326 16.3551 18.555 16.3337V16.1522C18.6434 16.157 18.7278 16.1577 18.7703 16.1159V15.8255L18.7703 15.8256Z" fill="black"/>
<path fill-rule="evenodd" clip-rule="evenodd" d="M5.02582 16.2612C5.30129 16.4007 5.62628 17.6957 4.88226 17.5679C4.82268 17.0241 4.98814 16.7068 5.02582 16.261V16.2612Z" fill="black"/>
<path fill-rule="evenodd" clip-rule="evenodd" d="M15.8635 16.8057C15.8085 17.0912 15.9857 17.1419 16.0071 17.3502C16.3125 17.2953 16.3741 17.4871 16.5095 17.6043C16.4889 17.7891 16.2333 17.7363 16.2942 18.0035H16.0071C15.9393 18.0922 16.0058 18.3168 15.8994 18.3665C15.9751 18.532 16.1503 18.5967 16.0788 18.911C16.1985 19.032 16.4679 19.0014 16.4018 19.3102C16.2531 19.3412 15.9605 19.2268 15.9712 19.4192C16.0501 19.5934 16.3693 19.5246 16.2942 19.8547C16.0892 19.8684 16.1334 19.6301 15.9353 19.6369C15.8163 19.6497 15.879 19.8461 15.8635 19.9636C15.6545 19.9095 15.6672 20.0796 15.5405 20.1088C15.6104 20.5666 15.3602 20.7008 15.4328 21.1614C15.2053 20.9761 15.0608 21.1203 14.7869 21.1614C14.7503 20.6504 14.1075 20.7676 13.8179 20.9436C13.8227 20.8541 13.8234 20.7688 13.782 20.7259H13.2796C13.2882 20.4872 13.0997 20.4481 13.1719 20.1451C13.1679 20.0523 13.0518 20.0731 12.9566 20.0725C12.9174 19.7129 12.6882 19.5454 12.7413 19.0925C12.8723 19.0677 12.9032 18.9417 12.9925 18.8747C13.2186 18.8275 13.1736 19.0544 13.4231 18.9836C13.5665 18.7414 13.8997 18.6912 14.0332 18.4391C14.5135 18.3236 14.479 17.694 15.0739 17.6769C15.1152 17.634 15.1145 17.5485 15.1098 17.4591H15.2892C15.2809 17.1844 15.57 17.2107 15.5404 16.9146C15.7497 16.981 15.6898 16.7752 15.8635 16.8057L15.8635 16.8057Z" fill="black"/>
<path fill-rule="evenodd" clip-rule="evenodd" d="M8.54243 17.5681H8.68599C8.77637 17.6824 8.96803 17.6942 9.1884 17.677C9.4148 17.8836 9.42593 18.3079 9.83437 18.3303C9.89373 18.7663 10.3155 18.8358 10.6598 18.9837C10.7377 19.2558 11.0482 19.2926 11.1263 19.5644C11.1761 19.76 10.9896 19.7165 11.0186 19.8911C11.3832 19.9338 11.2952 20.4342 11.6287 20.5082C11.6671 20.3726 11.5396 20.4047 11.5569 20.2904C11.6587 20.2481 11.6938 20.1384 11.8799 20.1815C11.7642 20.5806 12.2151 20.5463 12.0953 20.8349C11.9848 20.8619 12.0263 20.7352 11.9158 20.7623C11.6127 21.0929 11.9849 21.4663 11.7722 21.8149C11.6168 21.7544 11.4949 21.6598 11.2339 21.706C11.1326 21.3487 10.6066 21.421 10.588 20.98C10.5456 20.9383 10.4611 20.9389 10.3727 20.9437C10.3611 20.7256 10.2602 20.5978 10.1574 20.4719C10.174 20.201 10.0509 20.0713 9.94201 19.9274C9.92392 19.1472 9.22178 19.0588 9.08073 18.4029C8.80436 18.2225 8.55779 18.0119 8.54236 17.568L8.54243 17.5681Z" fill="black"/>
<path fill-rule="evenodd" clip-rule="evenodd" d="M17.1911 19.4191H17.9807C17.9304 19.6102 17.8715 19.7926 17.6936 19.8547C17.601 19.6339 17.3648 19.5584 17.1911 19.419L17.1911 19.4191Z" fill="white"/>
<path fill-rule="evenodd" clip-rule="evenodd" d="M17.4782 19.7821C17.3916 19.9094 16.9741 19.8646 16.8323 19.8184V19.6733C16.9877 19.6359 17.478 19.5451 17.4783 19.7822L17.4782 19.7821Z" fill="white"/>
<path fill-rule="evenodd" clip-rule="evenodd" d="M20.4927 19.8547H20.6004C20.5193 20.1908 20.7818 20.1794 20.8157 20.3992H20.4927C20.5254 20.1763 20.4073 20.0242 20.4927 19.8547V19.8547Z" fill="black"/>
<path fill-rule="evenodd" clip-rule="evenodd" d="M21.6771 20.4356C21.5984 20.4316 21.3876 20.5672 21.1388 20.5082C21.0877 20.3475 21.2603 20.4132 21.2465 20.2904C21.1582 20.0651 20.6241 20.2907 20.7082 19.8911C21.0012 19.8947 21.4908 19.8311 22.0002 19.8548C22.1385 19.9327 22.0438 20.2462 22.2155 20.2904C22.2422 20.4021 22.117 20.3601 22.1437 20.4719C22.1376 20.5506 22.271 20.4883 22.3231 20.5082V20.7623C22.3282 20.866 22.4728 20.8286 22.5744 20.8349C22.809 20.5277 23.1912 20.3698 23.4356 20.0726C23.7401 20.2728 23.9664 20.5521 24.5122 20.5082C24.8077 20.6691 25.0848 20.8485 25.5529 20.8349C25.7243 21.0971 26.0424 21.2109 26.3065 21.3793V21.6697C26.5869 21.7612 26.9601 21.7588 26.9525 22.1416C26.8573 22.1421 26.7412 22.1214 26.7372 22.2142C26.7069 22.3899 26.9104 22.3293 26.8448 22.5408C26.8872 22.5826 26.9717 22.5819 27.0602 22.5771C26.997 22.8104 27.2245 22.7497 27.1678 22.9764C27.4822 23.106 27.744 23.2889 27.8138 23.6661C27.5859 23.703 27.5316 23.5643 27.4549 23.4483H26.8448C26.7127 23.1948 26.4803 23.0426 26.4142 22.7223C26.13 22.6274 25.8325 22.4157 25.5529 22.6134C25.6096 22.8402 25.3821 22.7795 25.4452 23.0127C25.1996 23.0909 24.9455 23.1606 24.584 23.1216C24.3623 22.664 23.9651 22.6886 23.3997 22.7949C23.3443 22.4726 23.4926 22.3565 23.7227 22.323C23.6396 21.6085 23.1079 21.3478 22.3949 21.2704C22.1555 21.0668 21.9006 21.0202 21.5695 21.1615C21.6059 20.8706 21.4978 20.7258 21.2465 20.726C21.3025 20.5408 21.6489 20.649 21.6772 20.4355L21.6771 20.4356Z" fill="black"/>
<path fill-rule="evenodd" clip-rule="evenodd" d="M20.1697 20.2904C20.1701 20.4373 19.9716 20.572 19.8467 20.4719C19.9203 20.3768 20.0344 20.3227 20.1698 20.2904H20.1697Z" fill="black"/>
<path fill-rule="evenodd" clip-rule="evenodd" d="M20.8158 21.0527C20.5818 20.859 20.364 20.9568 20.1339 20.8712C19.9555 20.8843 20.0008 21.1237 19.7392 21.0527C19.7347 20.9204 19.8893 20.8795 19.7392 20.7986C19.9359 20.4193 20.9562 20.6407 20.8159 21.0527L20.8158 21.0527Z" fill="black"/>
<path fill-rule="evenodd" clip-rule="evenodd" d="M19.524 20.8712C19.4983 21.0509 19.314 21.0701 19.0934 21.0527C19.0134 20.7115 19.4329 20.6327 19.5241 20.8712H19.524Z" fill="black"/>
<path fill-rule="evenodd" clip-rule="evenodd" d="M13.3515 22.214C13.4293 22.2201 13.3678 22.0853 13.3874 22.0325C13.7189 22.0239 13.9123 22.155 14.141 22.2503C14.2496 22.1423 14.4428 22.12 14.6793 22.1414C14.6988 22.379 14.4272 22.322 14.2845 22.3955C14.3197 22.5536 14.6353 22.4279 14.787 22.4681C14.8388 22.6335 14.9762 22.7122 15.2176 22.6859C15.2223 22.7754 15.223 22.8608 15.1817 22.9037C14.9583 22.924 14.8802 22.6819 14.751 22.9037C14.5775 22.7162 14.1149 22.8212 13.7821 22.7948C13.5624 22.6904 13.3608 22.5675 13.0285 22.577C12.9132 22.6089 12.9793 22.4573 12.8849 22.4681C12.4904 22.6915 11.9731 22.3091 11.6647 22.1051C11.83 21.7093 11.9954 21.9358 12.4542 21.9237C12.638 22.1371 13.0558 22.1139 13.3515 22.2141V22.214Z" fill="black"/>
<path fill-rule="evenodd" clip-rule="evenodd" d="M19.3087 22.5044C19.3365 22.6318 19.0127 22.589 18.9857 22.5407C18.9577 22.4137 19.2815 22.4562 19.3087 22.5044H19.3087Z" fill="black"/>
<path fill-rule="evenodd" clip-rule="evenodd" d="M16.5095 22.9038C16.0879 23.042 15.7016 22.9581 15.3253 23.0127C15.3197 22.8135 15.3844 22.6853 15.5765 22.686C15.7739 23.0004 16.4153 22.3774 16.5096 22.9038L16.5095 22.9038Z" fill="black"/>
<path fill-rule="evenodd" clip-rule="evenodd" d="M17.4783 22.7948V23.0126C17.1123 23.0925 17.0503 22.8647 16.7247 22.9037C16.8015 22.4822 17.1787 22.8224 17.4784 22.7948L17.4783 22.7948Z" fill="black"/>
<path fill-rule="evenodd" clip-rule="evenodd" d="M18.6626 22.7223C18.6904 22.8496 18.3666 22.8068 18.3396 22.7586C18.312 22.6311 18.6357 22.674 18.6626 22.7223H18.6626Z" fill="black"/>
<path fill-rule="evenodd" clip-rule="evenodd" d="M19.4523 22.8311C19.1594 23.0431 18.7073 23.094 18.5551 23.4482C18.3137 23.3855 18.2872 23.5402 18.1245 23.5571C18.0195 22.9669 18.6722 23.1432 18.8063 22.7949C19.1265 22.9274 19.3957 22.5175 19.4524 22.8312L19.4523 22.8311Z" fill="black"/>
<path fill-rule="evenodd" clip-rule="evenodd" d="M27.7061 23.0127C27.9108 23.0476 27.9847 23.2149 28.065 23.3757C28.026 23.3846 28.0407 23.4478 27.9932 23.4482C27.8656 23.3716 27.8446 23.1872 27.6702 23.1578C27.6656 23.0929 27.714 23.0812 27.7061 23.0126V23.0127Z" fill="black"/>
<path fill-rule="evenodd" clip-rule="evenodd" d="M16.5096 23.1216H16.9402C16.9464 23.2969 17.1792 23.2429 17.1556 23.4483C16.8328 23.5206 16.824 23.2755 16.5096 23.3394V23.1216H16.5096Z" fill="black"/>
<path fill-rule="evenodd" clip-rule="evenodd" d="M22.6459 31.3974C22.7648 31.3846 22.8016 31.2887 22.8612 31.2159C22.569 31.2387 22.3966 31.687 21.9999 31.7241C22.0773 31.2707 21.6537 31.3241 21.641 30.9618C21.2879 30.9802 21.0618 30.8702 20.8516 30.7441C20.6768 30.7004 20.7543 30.9119 20.5644 30.8529C20.3736 30.6308 19.9917 30.8461 19.8109 30.9618C19.118 30.9023 18.7023 31.1231 18.4471 31.5063H17.9806C17.6678 31.2275 17.2385 31.5744 17.0117 31.7241C16.5495 31.756 16.1587 31.7157 15.9709 31.47C16.1517 31.1373 16.0688 30.659 15.7556 30.5263C15.7188 29.8738 15.2577 29.6506 15.1097 29.1106H15.2891C15.2418 28.7955 15.0156 28.6613 14.8943 28.421C15.1242 28.2776 14.8913 27.7328 15.0379 27.5862C15.1889 27.5302 15.0436 27.774 15.1456 27.7676C15.3653 27.5301 15.6271 27.3352 15.8992 27.1506C16.0233 27.1219 16.0507 27.1909 16.1145 27.2232C16.2926 27.1008 16.5818 27.0909 16.7246 26.9328C17.2045 27.1588 17.4396 26.5883 17.6936 26.352V25.9528C17.8668 25.9465 17.8135 25.7111 18.0166 25.735C17.9959 25.9132 18.0631 26.0025 18.196 26.0254C18.2781 25.9632 18.2091 25.7483 18.2319 25.6261H18.519C18.5573 25.4905 18.4298 25.5226 18.4472 25.4083C18.7505 25.1585 19.0106 24.8651 19.452 24.755C19.6344 24.8487 19.7172 25.0433 19.8826 25.1542C20.0729 24.9915 20.0691 25.2523 20.3492 25.1905C20.2045 24.9548 20.3689 24.8967 20.3851 24.6461C20.4735 24.6509 20.5579 24.6515 20.6004 24.6098V24.3194C20.8243 24.183 21.2952 24.2962 21.4258 24.0653C21.4427 23.8909 21.2065 23.9725 21.2463 23.7749C21.8041 23.9315 22.3544 24.288 22.8612 24.1016C22.8739 24.2097 23.0089 24.1942 22.9689 24.3557C22.7238 24.5313 22.6652 24.8955 22.4665 25.1179C22.6816 25.469 23.2087 25.5045 23.4354 25.8439H23.7225C23.6615 26.1233 23.9501 26.0492 24.0455 26.1706C24.177 26.1705 24.1407 26.0007 24.3326 26.0617C24.4893 25.7242 24.6572 25.3978 24.5838 24.8275C24.687 24.6053 24.8084 24.4015 24.7991 24.0653C24.8727 23.9704 24.9431 23.8722 24.9067 23.666H25.1221C25.1828 24.0523 25.3678 24.3128 25.3374 24.7913C25.4043 25.0019 25.7375 24.9431 25.8757 25.0816C25.7585 25.7567 26.1932 25.8736 26.091 26.5335C26.3044 26.7411 26.5743 26.8917 26.8446 27.0417C26.7711 27.3459 27.0071 27.3371 26.9523 27.6225C27.0323 27.711 27.1855 27.7254 27.2753 27.804C27.2956 28.2553 27.6032 28.416 27.8136 28.6751C27.7672 29.0637 27.6513 29.3821 27.7059 29.8729C27.4573 30.0207 27.3618 30.3234 27.2753 30.6352C27.152 30.692 27.0352 30.7553 27.06 30.9618C26.7969 30.9862 26.6534 31.1314 26.6293 31.3974C26.4566 31.5494 26.2157 31.6324 26.1987 31.9419C26.0692 31.9319 26.1013 32.0854 25.9833 32.0871V32.3774C25.7438 32.5344 25.1943 32.3779 25.1221 32.7041H24.5838V32.5226C24.4193 32.5015 24.4165 32.6438 24.3326 32.7041C23.8693 32.7855 23.7083 32.5612 23.2919 32.5952C23.2984 32.516 23.2625 32.4797 23.1842 32.4863C23.1842 32.3653 23.1842 32.2444 23.1842 32.1234C23.0944 32.0448 23.0668 31.9033 22.8612 31.9419C22.8149 31.7619 22.9481 31.7635 22.933 31.6152C22.7035 31.5887 22.7412 31.8325 22.5383 31.833C22.5469 31.6595 22.7051 31.6384 22.6463 31.3974L22.6459 31.3974Z" fill="black"/>
<path fill-rule="evenodd" clip-rule="evenodd" d="M31.4743 31.2885H31.582C31.6063 31.4624 31.6603 31.6531 31.5102 31.7603C31.5452 31.858 31.5893 31.9465 31.6179 32.0507C31.7857 32.0874 31.7371 31.9051 31.905 31.9418C31.7966 32.1468 31.6839 32.3474 31.4026 32.3774C31.3295 32.7512 30.9849 32.8504 30.7207 33.0308C30.6973 32.8376 30.8852 32.8584 30.936 32.7404C30.982 32.5971 30.8315 32.6525 30.8284 32.5589C31.1352 32.2293 31.529 31.872 31.4744 31.2883L31.4743 31.2885Z" fill="black"/>
<path fill-rule="evenodd" clip-rule="evenodd" d="M22.6458 31.9782C22.6736 32.1056 22.3499 32.0628 22.3228 32.0145C22.2952 31.8871 22.6189 31.93 22.6459 31.9782H22.6458Z" fill="black"/>
<path fill-rule="evenodd" clip-rule="evenodd" d="M30.6129 32.9221C30.5009 33.3169 30.01 33.3285 29.8593 33.6843C29.5908 33.6668 29.4114 33.7395 29.4287 34.011C29.0656 34.087 28.8282 34.5307 28.4597 34.1925C28.6945 34.0307 28.8961 33.8353 29.1416 33.6843C29.8544 33.6549 29.8784 32.9292 30.6131 32.922L30.6129 32.9221Z" fill="black"/>
<path fill-rule="evenodd" clip-rule="evenodd" d="M24.261 33.2488C24.4808 33.208 24.5803 33.2888 24.6916 33.3577C24.8029 33.2888 24.9025 33.208 25.1222 33.2488C25.2099 33.7604 24.5404 34.0759 24.261 33.757C24.4107 33.6096 24.2028 33.5083 24.261 33.2487V33.2488Z" fill="black"/>
<path fill-rule="evenodd" clip-rule="evenodd" d="M24.4045 2.64972H24.7634C24.7834 2.75042 24.8868 2.76679 24.9069 2.86753C25.0817 2.9112 25.0042 2.69971 25.194 2.75863C25.1365 2.90623 25.1636 3.13925 24.9069 3.08531C24.8538 3.79654 25.8132 3.81611 25.6605 4.39204C25.8352 4.38725 25.8373 4.20785 25.9835 4.17423C25.888 3.76307 26.2878 3.85285 26.1988 3.44829C26.0676 3.21803 25.628 3.29978 25.5888 2.9764C25.8496 3.05006 25.8119 3.08164 26.0553 2.9764C26.189 2.93796 26.1711 3.05282 26.2347 3.08531C26.9541 3.07053 28.0929 3.79502 28.7109 4.13796C32.2517 6.10289 34.8551 9.00972 36.4623 12.8494C37.5162 15.367 38.0598 18.3005 37.826 21.815C37.6745 24.0931 36.8946 26.2754 35.9958 28.0945C34.2507 31.6264 31.5151 34.4085 27.9932 36.1888C25.2211 37.59 22.0316 38.3057 18.1245 38.04C15.8898 37.888 13.6852 37.083 11.9161 36.1888C8.45959 34.4417 5.65811 31.6256 3.91344 28.0945C2.74185 25.7233 1.85254 22.8379 2.01146 19.3831C2.1575 16.2079 2.87565 13.8263 4.057 11.5792C4.25487 11.622 4.30616 11.5166 4.45177 11.5066C4.47334 11.7267 4.39388 12.0491 4.52355 12.1599C4.41653 12.3179 4.28179 12.4478 4.3441 12.777C4.52205 12.8239 4.52043 12.6892 4.66708 12.7044C4.60635 13.0302 4.4049 13.2136 4.45174 13.6482C4.48321 13.7647 4.35867 13.7234 4.34406 13.7933C4.39815 14.8154 4.22498 16.0675 4.45174 16.9149C4.83175 16.779 4.78603 16.2125 5.0977 16.0075C5.11504 15.3596 5.54376 15.1278 5.42069 14.3378C5.53249 14.2089 5.78251 14.2198 5.77956 13.9748C5.97144 14.0358 5.93515 13.866 6.06666 13.8659C6.21492 13.3505 6.71689 13.1927 6.96383 12.777C7.21661 12.827 7.17709 12.5813 7.35859 12.5592V12.2689C7.43307 12.2474 7.48091 12.199 7.50212 12.1236C7.99512 12.1747 8.24464 11.9793 8.54286 11.8333C8.54149 12.1734 8.51457 12.5395 8.82995 12.5592C8.86544 12.704 8.72271 12.6685 8.75817 12.8133C9.00872 13.0873 8.79169 13.6126 8.75817 13.9385C9.16395 14.0824 9.29305 13.6329 9.61945 13.5756C9.4817 14.2449 9.92434 14.8343 9.61945 15.3178C9.83145 15.6442 9.43418 16.1255 9.51177 16.6608C9.52685 16.7424 9.70221 16.6618 9.72712 16.7334C9.76847 16.982 9.86526 17.1744 10.0501 17.2779C9.97807 17.5802 10.1697 17.9226 10.0501 18.0401C10.0699 18.1653 10.1805 18.1987 10.2654 18.258C10.2616 18.9031 10.9663 18.8316 11.1267 19.3106C11.2241 19.2881 11.4115 19.3567 11.4497 19.2743C11.4628 19.1522 11.2942 19.2138 11.2344 19.1654C11.276 18.8209 11.1463 18.6495 11.0191 18.4757V17.6046C10.7315 17.3994 10.6244 17.0117 10.1578 16.9875C10.2306 16.6114 9.98435 16.558 10.0501 16.189C10.035 16.1074 9.8597 16.188 9.83479 16.1164C9.84552 15.7643 10.0211 15.5789 10.1578 15.3541C10.1332 15.051 10.2117 14.8521 10.3731 14.7371C10.5394 14.714 10.464 14.9355 10.4808 15.0638C10.763 15.0081 10.8131 15.1873 11.0191 15.2089V15.5719C11.12 15.6271 11.3027 15.5997 11.2344 15.826C11.3467 15.8334 11.4978 15.8015 11.5574 15.8623V16.4794C11.7906 16.2676 12.1508 16.1843 12.2392 15.826C12.6619 15.709 12.9739 15.4802 13.1723 15.1364V14.0111C13.0221 13.9299 13.0388 13.8502 12.957 13.6845C12.8877 13.5441 12.5934 13.4027 12.5263 13.2852C12.5066 13.2505 12.5494 13.1721 12.5263 13.14C12.4056 12.972 12.2221 12.9012 12.311 12.4866C12.7139 12.2771 12.8815 11.8295 13.4594 11.797C13.6336 11.8869 13.5348 12.253 13.7823 12.2689C13.5679 12.3786 13.2298 12.3634 13.1723 12.6318C13.172 12.8378 13.3402 12.8733 13.4235 12.9948C13.7476 12.9233 13.8205 12.5978 14.0336 12.414C14.0403 12.2378 13.8241 12.2872 13.8182 12.1236C13.9821 11.8297 14.3678 11.76 14.7513 11.6881C15.0702 11.3432 15.381 11.4288 15.9355 11.3614C15.9628 11.2196 16.0478 11.1362 16.115 11.0347C16.6581 11.0881 16.5769 10.5098 17.048 10.4903C16.9664 9.98425 17.4736 10.0737 17.4787 9.65542C17.8388 9.62032 17.8487 9.23112 18.017 9.00206C17.9668 8.89562 17.6725 9.03593 17.6223 8.92945C17.5986 8.77245 17.8737 8.91758 17.9094 8.82055C18.0436 8.27344 17.5312 8.38027 17.5864 7.9131C17.4953 7.8116 17.3739 7.74088 17.2993 7.62272C17.5452 7.38748 17.7722 7.13315 18.2323 7.11456V6.93305C18.1127 6.84839 17.8019 6.95705 17.7658 6.78784C17.6302 6.85642 17.5066 6.93704 17.371 7.00566C17.2589 7.02228 17.2563 6.92811 17.2634 6.82414C17.1466 6.7608 16.9514 6.77666 16.9763 6.57007C17.581 6.6251 17.6302 6.11836 18.1964 6.13448C18.135 6.33857 17.9825 6.45041 17.9093 6.64263C18.1933 6.6487 18.5135 6.19267 18.986 6.38855C19.0184 6.56654 18.958 6.65066 18.8783 6.71524C18.901 6.92212 19.1453 6.90492 19.3807 6.89671C19.3053 7.20608 19.3502 7.34116 19.3089 7.76786C19.6946 7.75864 19.9391 7.60667 20.2779 7.55008C20.3423 6.95251 20.1029 6.66235 19.7396 6.49742C19.8024 6.25852 20.1275 6.28484 20.2779 6.13444C20.2721 5.77766 20.601 5.75951 20.7803 5.58998C21.4728 5.98429 21.8264 5.23375 22.2875 5.04548C22.3442 4.83667 22.4721 4.69985 22.6464 4.60993V3.88396C23.0299 3.98005 22.915 4.58027 23.1847 4.7914C23.1422 5.06287 23.1618 5.20986 23.2923 5.37217C23.2608 5.60642 22.9463 5.55455 22.8617 5.73515C23.0924 5.96567 23.1494 6.51979 22.9694 6.86037C22.8337 6.9129 22.9005 6.76062 22.7899 6.78777C22.656 6.86843 22.881 6.88506 22.8258 7.00558C22.4778 6.95599 22.43 7.21022 22.144 7.22336C22.0662 7.21726 22.1277 7.35209 22.1081 7.40487C21.8235 7.24714 21.6107 7.53832 21.175 7.44117C20.9314 7.67866 20.6217 7.84939 20.2779 7.98563C20.2475 8.29464 20.4835 8.33428 20.4932 8.6027C20.5825 8.64546 20.6972 8.6626 20.7444 8.74791C20.9918 8.73193 20.8677 8.3402 21.0315 8.23975C21.0574 8.03206 20.8261 8.08445 20.8521 7.87676H21.1033C21.1767 7.93561 21.1016 8.1446 21.175 8.20345C21.3985 8.19956 21.4534 8.0252 21.7492 8.09454C21.8545 8.04372 21.7157 7.74607 21.821 7.69525C21.9464 7.81037 21.993 8.00524 22.144 8.09454C22.2799 8.00219 22.4353 7.92947 22.4311 7.69525C22.7306 7.76154 23.0756 7.82877 23.1847 7.58635C23.2992 7.55523 23.2957 7.64348 23.3641 7.65895C23.4585 7.66969 23.3923 7.51813 23.5077 7.55004C23.4443 7.03829 23.5792 6.72707 23.723 6.42482C23.599 6.21144 23.3527 6.12184 23.3282 5.80776C23.5189 5.79643 23.7023 5.79247 23.7589 5.91666C23.9361 5.85393 23.9427 5.61869 24.2613 5.69889C24.2809 5.64614 24.2193 5.51128 24.2972 5.51737C24.196 5.35347 23.9223 5.36414 23.6512 5.37217C23.6242 5.15751 23.3197 5.22347 23.2923 5.00918C23.3231 4.90717 23.4864 4.9393 23.6153 4.93658C23.6271 4.73111 23.429 4.73786 23.2923 4.6825V4.42842C23.3173 4.35679 23.4926 4.43735 23.5077 4.35581V4.2106C23.0882 4.13876 23.1463 3.58396 22.8258 3.41207C22.6829 3.40059 22.7286 3.57996 22.6105 3.59358C22.3694 3.45661 22.0998 3.33834 21.821 3.52097C21.7827 3.38538 21.9101 3.41751 21.8928 3.30319C21.7252 3.23295 21.6634 3.45512 21.5698 3.3395C21.5277 3.14862 21.797 3.18184 21.9646 3.08542C22.1631 2.97114 22.5006 2.52571 22.7899 2.86764C23.4102 2.79682 23.7937 2.96551 24.333 2.97655C24.4231 2.93622 24.3173 2.69593 24.4034 2.65001L24.4045 2.64972ZM18.5191 15.1362C18.3209 15.3224 18.571 15.4943 18.555 15.717C18.6434 15.7218 18.7279 15.7225 18.7703 15.6807C18.8142 15.5153 18.6718 15.5383 18.6985 15.3903H18.8779V14.9547C18.7996 14.9613 18.7638 14.925 18.7702 14.8458H18.3755C18.3508 14.653 18.1846 14.6033 18.2319 14.3376C18.0843 14.3054 17.9328 14.2772 17.8371 14.1925C17.8044 14.3111 17.4541 14.3848 17.4783 14.1562C17.4854 14.0424 17.713 14.1516 17.6936 14.011C17.6612 13.9349 17.491 13.9981 17.4783 13.9021V13.6843C17.6179 13.6683 17.6949 13.5889 17.8013 13.5391V12.7769C17.5246 12.851 17.5243 12.6456 17.2989 12.668C17.2096 12.735 17.1787 12.861 17.0476 12.8858V13.5028C17.0052 13.5446 16.9208 13.5439 16.8323 13.5391C16.7668 13.8594 16.9241 13.9544 16.94 14.1925C16.9921 14.2123 17.1255 14.1501 17.1194 14.2288C17.1462 14.3405 17.0209 14.2985 17.0477 14.4102C17.1155 14.4263 17.2639 14.3609 17.2271 14.4829C17.2179 14.5582 17.0694 14.4928 17.0477 14.5555C17.0951 14.7736 17.1512 14.9831 17.3347 15.0636C17.4131 14.9977 17.4913 14.9316 17.4783 14.7732C17.4637 14.7033 17.3392 14.7446 17.3706 14.628C17.383 14.5196 17.467 14.4835 17.5501 14.4466C17.5944 14.564 17.434 14.4743 17.4783 14.5918C17.6386 14.6887 17.88 14.5988 18.0166 14.5555C18.0932 14.7916 18.0535 14.8098 18.0166 15.0636C18.2257 14.9973 18.1658 15.2031 18.3396 15.1725C18.4344 14.9578 18.1304 14.9188 18.3037 14.8458C18.3278 14.991 18.5047 14.9812 18.5191 15.1363V15.1362ZM17.0475 11.0344C17.0005 11.3604 17.1602 11.4771 17.3346 11.5789C17.5688 11.2954 17.7121 10.9201 17.8012 10.49C17.2689 10.3872 17.3583 10.9133 17.0475 11.0345L17.0475 11.0344ZM18.2678 15.3903C18.1871 15.4054 18.2732 15.5893 18.1602 15.5718C17.9601 15.4475 18.0217 15.0585 17.586 15.1725C17.648 15.4167 17.495 15.4435 17.4783 15.6081C17.5992 15.6311 17.8117 15.5614 17.8731 15.6444C17.8835 15.8002 17.704 15.7637 17.6937 15.8985C17.6769 16.0607 17.7831 16.0984 17.8731 16.1526C18.1162 16.0959 18.1651 15.843 18.5549 15.9348C18.5861 15.7943 18.4673 15.8056 18.4473 15.717C18.3132 15.6782 18.345 15.8071 18.232 15.7896C18.335 15.7199 18.4473 15.4411 18.2678 15.3903V15.3903ZM18.7703 16.116C18.7279 16.1578 18.6435 16.1571 18.555 16.1523V16.3338C18.4326 16.3552 18.3664 16.4335 18.232 16.4427V16.2612C17.9408 16.3295 17.3674 16.6115 17.6578 16.9146C17.7386 16.8995 17.6525 16.7155 17.7655 16.7331C17.8778 16.8826 18.0206 16.7581 18.1244 16.6968C18.2281 16.7128 18.288 16.7733 18.3038 16.8783C18.2719 16.9428 18.2036 16.9705 18.232 17.0961C18.4056 17.2592 18.5554 17.4465 18.878 17.459C18.9177 17.3056 18.7935 16.9864 18.9498 16.9509C19.0276 16.9448 18.966 17.0796 18.9857 17.1324C19.2209 17.1283 19.1887 16.8537 19.3086 16.7331C19.1559 16.6698 19.207 16.4004 19.201 16.1886C19.131 16.1021 18.9877 16.0898 19.0216 15.8982C18.8727 15.9398 18.8817 15.8219 18.7704 15.8256V16.1161L18.7703 16.116ZM4.88225 17.5681C5.62624 17.6959 5.30124 16.4009 5.02581 16.2614C4.98813 16.7072 4.82267 17.0245 4.88225 17.5683V17.5681ZM15.5405 16.9147C15.57 17.2107 15.2809 17.1845 15.2893 17.4591H15.1098C15.1146 17.5486 15.1152 17.634 15.0739 17.6769C14.479 17.694 14.5135 18.3237 14.0332 18.4392C13.8997 18.6913 13.5665 18.7415 13.4232 18.9836C13.1736 19.0545 13.2186 18.8275 12.9925 18.8747C12.9033 18.9418 12.8723 19.0678 12.7413 19.0925C12.6882 19.5455 12.9174 19.7129 12.9566 20.0726C13.0518 20.0731 13.1679 20.0524 13.1719 20.1452C13.0997 20.4481 13.2883 20.4873 13.2796 20.7259H13.7821C13.8234 20.7688 13.8227 20.8542 13.818 20.9437C14.1075 20.7676 14.7504 20.6505 14.7869 21.1615C15.0608 21.1204 15.2053 20.9762 15.4329 21.1615C15.3602 20.7008 15.6104 20.5667 15.5405 20.1089C15.6672 20.0797 15.6545 19.9096 15.8635 19.9637C15.879 19.8462 15.8163 19.6497 15.9353 19.637C16.1334 19.6302 16.0893 19.8685 16.2942 19.8548C16.3693 19.5247 16.0501 19.5935 15.9712 19.4192C15.9605 19.2269 16.2531 19.3413 16.4019 19.3103C16.468 19.0015 16.1985 19.0321 16.0789 18.911C16.1503 18.5968 15.9751 18.532 15.8995 18.3666C16.0058 18.3169 15.9393 18.0923 16.0071 18.0036H16.2942C16.2334 17.7364 16.4889 17.7891 16.5095 17.6043C16.3742 17.4872 16.3126 17.2954 16.0071 17.3503C15.9857 17.142 15.8086 17.0913 15.8636 16.8058C15.6899 16.7753 15.7498 16.9811 15.5405 16.9147L15.5405 16.9147ZM9.08079 18.4031C9.22184 19.0589 9.92398 19.1473 9.94207 19.9276C10.051 20.0715 10.174 20.2011 10.1574 20.472C10.2602 20.5979 10.3612 20.7257 10.3727 20.9439C10.4612 20.9391 10.5456 20.9384 10.588 20.9802C10.6067 21.4211 11.1327 21.3488 11.234 21.7061C11.495 21.6599 11.6168 21.7545 11.7723 21.815C11.9849 21.4665 11.6127 21.0931 11.9159 20.7624C12.0263 20.7354 11.9848 20.862 12.0953 20.835C12.2152 20.5464 11.7643 20.5808 11.88 20.1816C11.6939 20.1386 11.6587 20.2483 11.557 20.2905C11.5397 20.4048 11.6671 20.3727 11.6288 20.5083C11.2952 20.4343 11.3832 19.934 11.0187 19.8913C10.9897 19.7167 11.1762 19.7601 11.1264 19.5646C11.0483 19.2927 10.7377 19.2559 10.6598 18.9838C10.3156 18.8359 9.8938 18.7665 9.83443 18.3305C9.42599 18.308 9.41487 17.8837 9.18847 17.6771C8.96809 17.6944 8.77643 17.6825 8.68606 17.5682H8.5425C8.55793 18.0122 8.8045 18.2227 9.08086 18.4032L9.08079 18.4031ZM19.524 20.3993C19.7132 20.4213 19.8146 20.3545 19.847 20.2178C19.7896 20.1065 19.6362 20.0923 19.6317 19.9275C19.8674 19.8876 19.8116 19.5528 20.17 19.6371C20.2023 19.4229 19.964 19.4824 19.9547 19.3104C19.9234 19.1698 20.1114 19.2511 20.0623 19.0926C20.0537 19.0408 20.0033 19.0314 19.9905 18.9837C19.8474 18.9478 19.8825 19.0922 19.7394 19.0563C19.7312 18.9047 19.7977 18.8849 19.7394 18.7659H19.6317C19.4623 19.3529 19.4375 19.7653 19.524 20.3995V20.3993ZM16.689 19.5281H16.5095C16.511 19.6384 16.5304 19.767 16.4019 19.7458C16.5225 20.1647 16.3708 20.4506 16.2942 20.9437C16.4065 20.9511 16.5576 20.9192 16.6172 20.98C16.683 21.3248 16.5257 21.444 16.5095 21.7059H16.9402C17.0005 21.3676 16.8126 20.7783 17.0478 20.617C17.2276 20.7377 17.1322 21.1366 17.3349 21.234C17.3317 21.2913 17.2434 21.2625 17.2631 21.3429C17.3199 21.4429 17.4465 21.472 17.4785 21.597C17.5915 21.6146 17.5597 21.4856 17.6938 21.5244V21.7059H17.9091C17.8623 21.4891 17.9641 21.4227 18.0168 21.3066C17.7278 21.1392 17.6621 20.7458 17.5143 20.4355C17.63 20.3468 17.6823 20.1941 17.7655 20.0725C17.7697 20.1439 18.0034 20.2777 18.0168 20.1088C18.023 20.0057 17.782 20.1527 17.8373 19.9999C18.0244 19.9956 18.0212 19.7987 18.0526 19.637C18.3447 19.6904 18.2548 19.3575 18.5551 19.4192V19.0925C17.9564 19.4962 16.8309 18.6972 16.6887 19.5281L16.689 19.5281ZM20.4927 20.3993H20.8157C20.7818 20.1795 20.5193 20.1909 20.6004 19.8549H20.4927C20.4073 20.0244 20.5254 20.1765 20.4927 20.3994V20.3993ZM21.2464 20.726C21.4978 20.7259 21.6058 20.8707 21.5694 21.1616C21.9005 21.0203 22.1555 21.0669 22.3948 21.2705C23.1078 21.3479 23.6396 21.6086 23.7226 22.3231C23.4925 22.3565 23.3442 22.4727 23.3996 22.795C23.9651 22.6887 24.3622 22.6641 24.5839 23.1217C24.9455 23.1607 25.1996 23.091 25.4452 23.0128C25.3821 22.7795 25.6095 22.8402 25.5528 22.6135C25.8324 22.4158 26.1299 22.6275 26.4141 22.7224C26.4802 23.0427 26.7126 23.1948 26.8447 23.4483H27.4548C27.5315 23.5644 27.5858 23.7031 27.8137 23.6661C27.744 23.289 27.4822 23.1061 27.1677 22.9765C27.2244 22.7497 26.997 22.8104 27.0601 22.5772C26.9716 22.582 26.8872 22.5827 26.8447 22.5409C26.9103 22.3294 26.7068 22.39 26.7371 22.2142C26.7411 22.1215 26.8573 22.1422 26.9524 22.1416C26.96 21.7589 26.5868 21.7613 26.3064 21.6698V21.3794C26.0423 21.211 25.7242 21.0972 25.5528 20.8349C25.0848 20.8486 24.8076 20.6691 24.5121 20.5083C23.9663 20.5522 23.74 20.2729 23.4355 20.0727C23.1911 20.3699 22.8089 20.5278 22.5743 20.8349C22.4727 20.8287 22.3281 20.8661 22.323 20.7623V20.5083C22.2709 20.4884 22.1376 20.5507 22.1436 20.472C22.1169 20.3602 22.2421 20.4022 22.2154 20.2904C22.0438 20.2463 22.1384 19.9328 22.0001 19.8549C21.4908 19.8312 21.0011 19.8948 20.7082 19.8912C20.6241 20.2908 21.1582 20.0652 21.2464 20.2904C21.2602 20.4133 21.0876 20.3476 21.1388 20.5083C21.3875 20.5672 21.5984 20.4317 21.6771 20.4357C21.6487 20.6491 21.3024 20.5409 21.2464 20.7261L21.2464 20.726ZM19.8471 20.4719C19.9719 20.5721 20.1704 20.4374 20.17 20.2904C20.0344 20.3227 19.9202 20.3768 19.847 20.4719H19.8471ZM19.7394 20.7986C19.8895 20.8796 19.7349 20.9205 19.7394 21.0527C20.001 21.1238 19.9557 20.8843 20.1341 20.8712C20.3642 20.9568 20.582 20.859 20.816 21.0527C20.9559 20.6407 19.9356 20.4192 19.7392 20.7986L19.7394 20.7986ZM19.0933 21.0528C19.3139 21.0701 19.4983 21.0509 19.524 20.8712C19.4328 20.6327 19.0132 20.7115 19.0933 21.0528H19.0933ZM12.4542 21.9236C11.9953 21.9358 11.83 21.7093 11.6647 22.1051C11.9731 22.3091 12.4903 22.6915 12.8849 22.4681C12.9792 22.4573 12.9131 22.6089 13.0284 22.577C13.3608 22.5675 13.5623 22.6903 13.7821 22.7948C14.1149 22.8211 14.5775 22.7162 14.751 22.9037C14.8802 22.6819 14.9582 22.9239 15.1817 22.9037C15.223 22.8607 15.2223 22.7754 15.2176 22.6859C14.9762 22.7122 14.8388 22.6335 14.7869 22.4681C14.6353 22.4279 14.3196 22.5536 14.2845 22.3955C14.4271 22.3219 14.6988 22.379 14.6793 22.1414C14.4428 22.12 14.2495 22.1423 14.141 22.2503C13.9122 22.155 13.7189 22.0239 13.3874 22.0325C13.3677 22.0853 13.4293 22.2201 13.3515 22.214C13.0557 22.1138 12.638 22.1371 12.4542 21.9236V21.9236ZM18.9857 22.5408C19.0127 22.589 19.3364 22.6318 19.3086 22.5045C19.2814 22.4562 18.9576 22.4137 18.9856 22.5408H18.9857ZM15.5764 22.686C15.3842 22.6853 15.3196 22.8135 15.3252 23.0127C15.7015 22.9581 16.0878 23.042 16.5094 22.9038C16.415 22.3774 15.7737 23.0003 15.5763 22.6859L15.5764 22.686ZM16.7249 22.9038C17.0506 22.8648 17.1125 23.0925 17.4785 23.0127V22.7949C17.1784 22.8225 16.8012 22.4824 16.7248 22.9038L16.7249 22.9038ZM18.3396 22.7586C18.3667 22.8068 18.6904 22.8496 18.6626 22.7223C18.6357 22.674 18.312 22.6312 18.3396 22.7586H18.3396ZM18.8062 22.7949C18.6721 23.1432 18.0194 22.9669 18.1243 23.5571C18.2871 23.5402 18.3136 23.3855 18.555 23.4482C18.7072 23.094 19.1593 23.0431 19.4521 22.8312C19.3954 22.5175 19.1262 22.9274 18.8061 22.7949L18.8062 22.7949ZM27.6702 23.1579C27.8446 23.1873 27.8656 23.3717 27.9932 23.4483C28.0407 23.4479 28.026 23.3847 28.065 23.3757C27.9847 23.215 27.9108 23.0477 27.7061 23.0127C27.714 23.0814 27.6656 23.093 27.6702 23.158V23.1579ZM16.5095 23.3394C16.8239 23.2755 16.8327 23.5206 17.1555 23.4483C17.1791 23.2429 16.9463 23.2969 16.9402 23.1216H16.5095V23.3394H16.5095ZM22.5385 31.8331C22.7415 31.8326 22.7038 31.5888 22.9333 31.6153C22.9483 31.7636 22.8151 31.762 22.8615 31.9419C23.0671 31.9034 23.0946 32.0449 23.1845 32.1234C23.1845 32.2444 23.1845 32.3654 23.1845 32.4864C23.2628 32.4798 23.2986 32.5161 23.2921 32.5953C23.7086 32.5613 23.8695 32.7856 24.3328 32.7042C24.4167 32.6439 24.4196 32.5015 24.584 32.5227V32.7042H25.1223C25.1945 32.3779 25.744 32.5344 25.9836 32.3775V32.0871C26.1016 32.0855 26.0695 31.932 26.199 31.9419C26.2159 31.6324 26.4568 31.5494 26.6296 31.3975C26.6537 31.1314 26.7972 30.9863 27.0602 30.9619C27.0355 30.7554 27.1523 30.692 27.2755 30.6352C27.3621 30.3235 27.4576 30.0208 27.7062 29.873C27.6516 29.3821 27.7674 29.0638 27.8138 28.6752C27.6035 28.416 27.2959 28.2553 27.2755 27.804C27.1857 27.7255 27.0325 27.711 26.9526 27.6225C27.0074 27.3372 26.7714 27.346 26.8449 27.0418C26.5746 26.8917 26.3047 26.7412 26.0913 26.5336C26.1935 25.8737 25.7588 25.7568 25.876 25.0817C25.7378 24.9431 25.4045 25.002 25.3377 24.7913C25.368 24.3129 25.1831 24.0524 25.1223 23.6661H24.907C24.9434 23.8723 24.873 23.9704 24.7994 24.0654C24.8087 24.4015 24.6873 24.6054 24.584 24.8276C24.6574 25.3979 24.4896 25.7242 24.3328 26.0617C24.141 26.0007 24.1772 26.1705 24.0457 26.1706C23.9504 26.0493 23.6618 26.1234 23.7228 25.844H23.4357C23.209 25.5046 22.6818 25.4691 22.4667 25.118C22.6654 24.8955 22.7241 24.5313 22.9691 24.3557C23.0092 24.1943 22.8742 24.2098 22.8615 24.1017C22.3547 24.2881 21.8043 23.9315 21.2466 23.775C21.2068 23.9725 21.443 23.8909 21.426 24.0654C21.2954 24.2962 20.8246 24.183 20.6006 24.3194V24.6098C20.5582 24.6516 20.4738 24.6509 20.3853 24.6461C20.3692 24.8968 20.2047 24.9549 20.3495 25.1906C20.0694 25.2524 20.0732 24.9916 19.8829 25.1543C19.7175 25.0433 19.6347 24.8488 19.4522 24.755C19.0109 24.8651 18.7507 25.1585 18.4474 25.4084C18.4301 25.5227 18.5576 25.4906 18.5192 25.6262H18.2321C18.2094 25.7484 18.2784 25.9633 18.1962 26.0254C18.0633 26.0026 17.9961 25.9133 18.0168 25.735C17.8137 25.7112 17.8671 25.9466 17.6938 25.9528V26.3521C17.4398 26.5884 17.2047 27.1589 16.7249 26.9329C16.5821 27.0909 16.2928 27.1008 16.1148 27.2233C16.051 27.191 16.0236 27.1219 15.8995 27.1506C15.6274 27.3353 15.3656 27.5302 15.1459 27.7677C15.0439 27.7741 15.1892 27.5303 15.0382 27.5862C14.8915 27.7329 15.1244 28.2776 14.8946 28.4211C15.0159 28.6614 15.2421 28.7956 15.2894 29.1107H15.1099C15.2579 29.6507 15.7191 29.8739 15.7559 30.5263C16.069 30.6591 16.152 31.1374 15.9712 31.4701C16.1589 31.7158 16.5497 31.7561 17.0119 31.7241C17.2388 31.5744 17.6681 31.2275 17.9809 31.5064H18.4474C18.7026 31.1232 19.1182 30.9024 19.8111 30.9619C19.992 30.8462 20.3739 30.6309 20.5647 30.853C20.7546 30.9119 20.6771 30.7005 20.8518 30.7441C21.062 30.8702 21.2882 30.9803 21.6413 30.9619C21.654 31.3242 22.0776 31.2708 22.0002 31.7241C22.3968 31.687 22.5693 31.2387 22.8614 31.216C22.8018 31.2888 22.7651 31.3847 22.6461 31.3975C22.7043 31.6381 22.546 31.6592 22.5381 31.8327L22.5385 31.8331ZM30.8283 32.5591C30.8314 32.6528 30.9819 32.5973 30.936 32.7406C30.8852 32.8586 30.6972 32.8379 30.7206 33.031C30.9849 32.8506 31.3294 32.7514 31.4025 32.3776C31.6838 32.3476 31.7965 32.147 31.9049 31.942C31.737 31.9053 31.7857 32.0876 31.6178 32.0509C31.5893 31.9467 31.5452 31.8582 31.5102 31.7606C31.6602 31.6534 31.6062 31.4626 31.5819 31.2887H31.4743C31.5288 31.8724 31.1351 32.2297 30.8282 32.5593L30.8283 32.5591ZM22.3232 32.0146C22.3502 32.0628 22.6739 32.1056 22.6462 31.9783C22.6189 31.93 22.2951 31.8871 22.3231 32.0146H22.3232ZM29.1414 33.6841C28.896 33.8351 28.6943 34.0305 28.4596 34.1923C28.828 34.5305 29.0654 34.0868 29.4285 34.0108C29.4113 33.7393 29.5906 33.6666 29.8592 33.6841C30.0098 33.3283 30.5008 33.3167 30.6128 32.9219C29.8781 32.9295 29.854 33.6552 29.1412 33.6842L29.1414 33.6841ZM24.2609 33.7567C24.5404 34.0756 25.2098 33.7602 25.1222 33.2485C24.9025 33.2077 24.8029 33.2885 24.6916 33.3574C24.5802 33.2885 24.4807 33.2077 24.2609 33.2485C24.2028 33.5085 24.4106 33.6098 24.2609 33.7568V33.7567Z" fill="white"/>
<path fill-rule="evenodd" clip-rule="evenodd" d="M19.0574 1.41559C24.9741 1.13062 29.4644 3.52885 32.4789 6.38827C35.5088 9.26224 38.0281 13.4367 38.2926 19.0563C38.4381 22.1466 37.8325 24.7543 36.9289 26.9691C36.0287 29.1756 34.8427 31.0625 33.3761 32.6315C30.4216 35.7925 26.4685 38.2031 20.8157 38.4754C14.9252 38.7591 10.4482 36.375 7.43009 33.539C4.25373 30.5521 1.91578 26.557 1.61717 20.8699C1.2987 14.8097 3.67416 10.3909 6.46175 7.29473C8.56163 4.96228 11.4815 3.03794 15.0386 2.03164C16.2546 1.68735 17.7402 1.47781 19.0581 1.41432L19.0574 1.41559ZM24.3327 2.9764C23.7934 2.96537 23.4099 2.79667 22.7896 2.8675C22.5003 2.52557 22.1628 2.971 21.9642 3.08527C21.7967 3.18169 21.5274 3.14848 21.5695 3.33935C21.6631 3.45498 21.7249 3.23281 21.8925 3.30305C21.9098 3.41737 21.7823 3.38524 21.8207 3.52083C22.0995 3.33819 22.3691 3.45646 22.6102 3.59343C22.7283 3.57982 22.6826 3.40045 22.8255 3.41192C23.146 3.58381 23.088 4.13862 23.5073 4.21046V4.35567C23.4923 4.4372 23.3169 4.35665 23.292 4.42827V4.68235C23.4287 4.73771 23.6267 4.73096 23.615 4.93643C23.4861 4.93915 23.3228 4.90703 23.292 5.00904C23.3194 5.22333 23.6239 5.15733 23.6509 5.37202C23.922 5.364 24.1957 5.35329 24.2969 5.51723C24.219 5.51113 24.2806 5.64596 24.261 5.69874C23.9424 5.61855 23.9358 5.85379 23.7586 5.91652C23.7019 5.79233 23.5185 5.79632 23.3279 5.80761C23.3524 6.1217 23.5987 6.21129 23.7227 6.42468C23.5789 6.72693 23.444 7.03815 23.5073 7.5499C23.392 7.51799 23.4582 7.66955 23.3638 7.65881C23.2954 7.64334 23.2988 7.55509 23.1844 7.5862C23.0753 7.82863 22.7303 7.7614 22.4307 7.69511C22.435 7.92929 22.2796 8.00201 22.1437 8.0944C21.9927 8.00513 21.9461 7.81026 21.8207 7.69511C21.7154 7.74593 21.8542 8.04354 21.7489 8.0944C21.4531 8.02502 21.3982 8.19942 21.1747 8.2033C21.1013 8.14446 21.1764 7.93547 21.103 7.87662H20.8518C20.8258 8.0843 21.0571 8.03192 21.0312 8.23961C20.8673 8.34005 20.9915 8.73179 20.7441 8.74776C20.6969 8.66245 20.5822 8.64536 20.4929 8.60255C20.4832 8.33414 20.2472 8.29449 20.2776 7.98549C20.6213 7.84925 20.931 7.67852 21.1747 7.44103C21.6104 7.53817 21.8232 7.24699 22.1078 7.40473C22.1274 7.35198 22.0658 7.21712 22.1437 7.22322C22.4297 7.21008 22.4774 6.95585 22.8255 7.00544C22.8806 6.88495 22.6557 6.86829 22.7896 6.78763C22.9002 6.76047 22.8334 6.91276 22.969 6.86023C23.1491 6.51964 23.0921 5.96553 22.8614 5.73501C22.946 5.5544 23.2604 5.60628 23.292 5.37202C23.1615 5.20972 23.1419 5.06269 23.1844 4.79126C22.9146 4.58013 23.0296 3.97991 22.6461 3.88381V4.60979C22.4718 4.69971 22.3439 4.83653 22.2872 5.04534C21.8261 5.2336 21.4725 5.98411 20.78 5.58984C20.6007 5.75937 20.2718 5.77752 20.2776 6.1343C20.1272 6.28466 19.8021 6.25834 19.7393 6.49728C20.1026 6.66217 20.342 6.95237 20.2776 7.54994C19.9388 7.60653 19.6943 7.75849 19.3086 7.76771C19.3499 7.34102 19.305 7.20594 19.3804 6.89657C19.145 6.90477 18.9007 6.92198 18.878 6.71509C18.9577 6.65051 19.0181 6.5664 18.9856 6.38841C18.5132 6.19252 18.193 6.64855 17.909 6.64249C17.9822 6.45027 18.1347 6.33842 18.1961 6.13433C17.6299 6.11821 17.5806 6.62496 16.9759 6.56992C16.9511 6.77652 17.1462 6.76065 17.263 6.824C17.256 6.92793 17.2586 7.0221 17.3707 7.00551C17.5063 6.93694 17.6299 6.85631 17.7655 6.7877C17.8016 6.95687 18.1123 6.84825 18.232 6.93291V7.11442C17.7719 7.13301 17.5449 7.38734 17.299 7.62258C17.3735 7.74074 17.495 7.81146 17.5861 7.91296C17.5309 8.38013 18.0432 8.27329 17.909 8.8204C17.8734 8.9174 17.5983 8.77227 17.6219 8.92931C17.6722 9.03579 17.9665 8.89544 18.0167 9.00192C17.8484 9.23098 17.8384 9.62018 17.4784 9.65528C17.4733 10.0736 16.9661 9.98411 17.0477 10.4901C16.5767 10.5097 16.6578 11.0879 16.1147 11.0346C16.0475 11.136 15.9625 11.2195 15.9352 11.3613C15.3807 11.4286 15.0699 11.343 14.7509 11.688C14.3675 11.7599 13.9818 11.8295 13.8179 12.1235C13.8237 12.287 14.0399 12.2377 14.0332 12.4139C13.8202 12.5977 13.7473 12.9232 13.4232 12.9946C13.3399 12.8732 13.1717 12.8377 13.172 12.6317C13.2295 12.3632 13.5675 12.3785 13.782 12.2687C13.5345 12.2528 13.6333 11.8868 13.459 11.7968C12.8811 11.8293 12.7136 12.2769 12.3107 12.4865C12.2218 12.9011 12.4053 12.9719 12.526 13.1399C12.5491 13.1719 12.5062 13.2504 12.526 13.285C12.5931 13.4025 12.8874 13.544 12.9567 13.6843C13.0385 13.8501 13.0217 13.9297 13.172 14.011V15.1362C12.9736 15.48 12.6616 15.7089 12.2389 15.8259C12.1505 16.1841 11.7903 16.2674 11.5571 16.4792V15.8622C11.4975 15.8014 11.3464 15.8333 11.2341 15.8259C11.3024 15.5995 11.1197 15.627 11.0187 15.5718V15.2088C10.8128 15.1872 10.7627 15.008 10.4804 15.0636C10.4637 14.9354 10.5391 14.7139 10.3728 14.7369C10.2114 14.852 10.1329 15.0509 10.1575 15.354C10.0207 15.5787 9.8452 15.7641 9.83447 16.1162C9.85938 16.1879 10.0347 16.1073 10.0498 16.1888C9.98403 16.5578 10.2303 16.6113 10.1575 16.9874C10.624 17.0115 10.7312 17.3992 11.0187 17.6044V18.4756C11.1459 18.6494 11.2756 18.8207 11.2341 19.1652C11.2939 19.2137 11.4625 19.152 11.4494 19.2741C11.4112 19.3565 11.2238 19.288 11.1264 19.3104C10.966 18.8315 10.2613 18.9029 10.2651 18.2578C10.1801 18.1986 10.0696 18.1652 10.0498 18.04C10.1694 17.9225 9.97775 17.5801 10.0498 17.2778C9.86498 17.1743 9.76818 16.9819 9.7268 16.7333C9.70189 16.6617 9.52656 16.7422 9.51145 16.6607C9.43386 16.1254 9.83113 15.6441 9.61913 15.3177C9.92402 14.8342 9.48138 14.2447 9.61913 13.5754C9.29273 13.6327 9.16363 14.0823 8.75785 13.9384C8.79137 13.6124 9.0084 13.0871 8.75785 12.8132C8.72235 12.6684 8.86509 12.7039 8.82963 12.5591C8.51425 12.5393 8.54117 12.1733 8.54254 11.8331C8.24432 11.9792 7.99484 12.1745 7.5018 12.1235C7.48059 12.1989 7.43275 12.2473 7.35827 12.2687V12.5591C7.17677 12.5812 7.21629 12.8269 6.96351 12.7769C6.71661 13.1926 6.21464 13.3503 6.06634 13.8658C5.93483 13.8659 5.97112 14.0357 5.77924 13.9747C5.78219 14.2197 5.53217 14.2087 5.42037 14.3376C5.54347 15.1276 5.11472 15.3594 5.09738 16.0074C4.7857 16.2124 4.83143 16.7789 4.45141 16.9148C4.22465 16.0673 4.39787 14.8153 4.34374 13.7932C4.35835 13.7233 4.48286 13.7645 4.45141 13.648C4.40454 13.2134 4.60603 13.03 4.66676 12.7043C4.52011 12.689 4.52169 12.8237 4.34378 12.7769C4.28147 12.4477 4.41617 12.3177 4.52323 12.1598C4.39356 12.049 4.47302 11.7266 4.45145 11.5064C4.30588 11.5165 4.25455 11.6219 4.05668 11.579C2.87533 13.8261 2.15718 16.2079 2.01114 19.3829C1.85222 22.8378 2.74153 25.7231 3.91312 28.0944C5.65782 31.6255 8.45945 34.4414 11.9158 36.1887C13.6847 37.0828 15.8893 37.8879 18.1242 38.0399C22.0317 38.3055 25.221 37.5899 27.9928 36.1887C31.5148 34.4084 34.2504 31.6262 35.9955 28.0944C36.8943 26.2753 37.6741 24.0931 37.8257 21.8148C38.0595 18.3003 37.5159 15.3668 36.462 12.8493C34.8591 9.00849 32.2555 6.10141 28.7145 4.13673C28.0965 3.79378 26.9577 3.0693 26.2383 3.08408C26.1748 3.05159 26.1926 2.93676 26.0589 2.97517C25.8155 3.08041 25.8532 3.04883 25.5924 2.97517C25.6316 3.29851 26.0713 3.2168 26.2025 3.44706C26.2914 3.85161 25.8917 3.76184 25.9871 4.173C25.8409 4.20661 25.8389 4.38602 25.6641 4.39081C25.8168 3.81488 24.8574 3.79535 24.9105 3.08408C25.1672 3.13802 25.1402 2.905 25.1976 2.75739C25.0078 2.69847 25.0853 2.90997 24.9105 2.8663C24.8905 2.7656 24.7871 2.74923 24.767 2.64849H24.4081C24.3224 2.69426 24.4282 2.93455 24.3367 2.97502L24.3327 2.9764Z" fill="black"/>
<path fill-rule="evenodd" clip-rule="evenodd" d="M18.555 19.0928V19.4194C18.2548 19.3578 18.3447 19.6906 18.0526 19.6372C18.0211 19.799 18.0243 19.9958 17.8373 20.0002C17.7819 20.153 18.023 20.0059 18.0167 20.1091C18.0034 20.278 17.7697 20.1442 17.7655 20.0728C17.6823 20.1943 17.63 20.3471 17.5143 20.4358C17.662 20.7461 17.7277 21.1394 18.0167 21.3069C17.964 21.423 17.8622 21.4894 17.9091 21.7062H17.6937V21.5247C17.5597 21.4859 17.5915 21.6148 17.4784 21.5973C17.4465 21.4723 17.3198 21.4431 17.2631 21.3432C17.2433 21.2627 17.3316 21.2915 17.3349 21.2343C17.1322 21.1368 17.2275 20.7379 17.0478 20.6172C16.8125 20.7786 17.0004 21.3679 16.9401 21.7062H16.5094C16.5256 21.4442 16.6829 21.3251 16.6171 20.9802C16.5576 20.9194 16.4064 20.9513 16.2941 20.9439C16.3708 20.4509 16.5224 20.1649 16.4018 19.7461C16.5303 19.7672 16.5109 19.6387 16.5095 19.5283H16.6889C16.8314 18.697 17.957 19.496 18.5553 19.0927L18.555 19.0928ZM17.6936 19.8547C17.8715 19.7927 17.9304 19.6103 17.9807 19.4192H17.1912C17.3649 19.5586 17.6011 19.6341 17.6937 19.8548L17.6936 19.8547ZM16.8322 19.6732V19.8184C16.974 19.8645 17.3916 19.9094 17.4782 19.7821C17.4779 19.545 16.9876 19.6358 16.8322 19.6732L16.8322 19.6732Z" fill="black"/>
<path fill-rule="evenodd" clip-rule="evenodd" d="M19.6317 18.766H19.7394C19.7977 18.885 19.7312 18.9048 19.7394 19.0564C19.8825 19.0923 19.8474 18.9479 19.9905 18.9838C20.0033 19.0315 20.0537 19.0409 20.0623 19.0927C20.1114 19.2512 19.9234 19.1699 19.9547 19.3105C19.964 19.4825 20.2023 19.423 20.17 19.6372C19.8116 19.5529 19.8674 19.8877 19.6317 19.9275C19.6362 20.0924 19.7896 20.1066 19.847 20.2179C19.8146 20.3546 19.7132 20.4214 19.524 20.3994C19.4375 19.7648 19.4623 19.3525 19.6317 18.7658V18.766Z" fill="black"/>
<path d="M59.8984 22.9395C59.7402 24.293 59.2393 25.3389 58.3955 26.0771C57.5576 26.8096 56.4414 27.1758 55.0469 27.1758C53.5352 27.1758 52.3223 26.6338 51.4082 25.5498C50.5 24.4658 50.0459 23.0156 50.0459 21.1992V19.9688C50.0459 18.7793 50.2568 17.7334 50.6787 16.8311C51.1064 15.9287 51.71 15.2373 52.4893 14.7568C53.2686 14.2705 54.1709 14.0273 55.1963 14.0273C56.5557 14.0273 57.6455 14.4082 58.4658 15.1699C59.2861 15.9258 59.7637 16.9746 59.8984 18.3164H58.2021C58.0557 17.2969 57.7363 16.5586 57.2441 16.1016C56.7578 15.6445 56.0752 15.416 55.1963 15.416C54.1182 15.416 53.2715 15.8145 52.6562 16.6113C52.0469 17.4082 51.7422 18.542 51.7422 20.0127V21.252C51.7422 22.6406 52.0322 23.7451 52.6123 24.5654C53.1924 25.3857 54.0039 25.7959 55.0469 25.7959C55.9844 25.7959 56.7021 25.585 57.2002 25.1631C57.7041 24.7354 58.0381 23.9941 58.2021 22.9395H59.8984ZM61.5244 22.1572C61.5244 21.2256 61.7061 20.3877 62.0693 19.6436C62.4385 18.8994 62.9482 18.3252 63.5986 17.9209C64.2549 17.5166 65.002 17.3145 65.8398 17.3145C67.1348 17.3145 68.1807 17.7627 68.9775 18.6592C69.7803 19.5557 70.1816 20.748 70.1816 22.2363V22.3506C70.1816 23.2764 70.0029 24.1084 69.6455 24.8467C69.2939 25.5791 68.7871 26.1504 68.125 26.5605C67.4688 26.9707 66.7129 27.1758 65.8574 27.1758C64.5684 27.1758 63.5225 26.7275 62.7197 25.8311C61.9229 24.9346 61.5244 23.748 61.5244 22.2715V22.1572ZM63.1592 22.3506C63.1592 23.4053 63.4023 24.252 63.8887 24.8906C64.3809 25.5293 65.0371 25.8486 65.8574 25.8486C66.6836 25.8486 67.3398 25.5264 67.8262 24.8818C68.3125 24.2314 68.5557 23.3232 68.5557 22.1572C68.5557 21.1143 68.3066 20.2705 67.8086 19.626C67.3164 18.9756 66.6602 18.6504 65.8398 18.6504C65.0371 18.6504 64.3896 18.9697 63.8975 19.6084C63.4053 20.2471 63.1592 21.1611 63.1592 22.3506ZM78.0918 26.0596C77.459 26.8037 76.5303 27.1758 75.3057 27.1758C74.292 27.1758 73.5186 26.8828 72.9854 26.2969C72.458 25.7051 72.1914 24.832 72.1855 23.6777V17.4902H73.8115V23.6338C73.8115 25.0752 74.3975 25.7959 75.5693 25.7959C76.8115 25.7959 77.6377 25.333 78.0479 24.4072V17.4902H79.6738V27H78.127L78.0918 26.0596ZM83.6904 17.4902L83.7432 18.6855C84.4697 17.7715 85.4189 17.3145 86.5908 17.3145C88.6006 17.3145 89.6143 18.4482 89.6318 20.7158V27H88.0059V20.707C88 20.0215 87.8418 19.5146 87.5312 19.1865C87.2266 18.8584 86.749 18.6943 86.0986 18.6943C85.5713 18.6943 85.1084 18.835 84.71 19.1162C84.3115 19.3975 84.001 19.7666 83.7783 20.2236V27H82.1523V17.4902H83.6904ZM94.29 15.1875V17.4902H96.0654V18.7471H94.29V24.6445C94.29 25.0254 94.3691 25.3125 94.5273 25.5059C94.6855 25.6934 94.9551 25.7871 95.3359 25.7871C95.5234 25.7871 95.7812 25.752 96.1094 25.6816V27C95.6816 27.1172 95.2656 27.1758 94.8613 27.1758C94.1348 27.1758 93.5869 26.9561 93.2178 26.5166C92.8486 26.0771 92.6641 25.4531 92.6641 24.6445V18.7471H90.9326V17.4902H92.6641V15.1875H94.29ZM102.569 18.9492C102.323 18.9082 102.057 18.8877 101.77 18.8877C100.703 18.8877 99.9795 19.3418 99.5986 20.25V27H97.9727V17.4902H99.5547L99.5811 18.5889C100.114 17.7393 100.87 17.3145 101.849 17.3145C102.165 17.3145 102.405 17.3555 102.569 17.4375V18.9492ZM105.839 27H104.213V17.4902H105.839V27ZM104.081 14.9678C104.081 14.7041 104.16 14.4814 104.318 14.2998C104.482 14.1182 104.723 14.0273 105.039 14.0273C105.355 14.0273 105.596 14.1182 105.76 14.2998C105.924 14.4814 106.006 14.7041 106.006 14.9678C106.006 15.2314 105.924 15.4512 105.76 15.627C105.596 15.8027 105.355 15.8906 105.039 15.8906C104.723 15.8906 104.482 15.8027 104.318 15.627C104.16 15.4512 104.081 15.2314 104.081 14.9678ZM112.396 27.1758C111.106 27.1758 110.058 26.7539 109.249 25.9102C108.44 25.0605 108.036 23.9268 108.036 22.5088V22.21C108.036 21.2666 108.215 20.4258 108.572 19.6875C108.936 18.9434 109.439 18.3633 110.084 17.9473C110.734 17.5254 111.438 17.3145 112.193 17.3145C113.43 17.3145 114.391 17.7217 115.076 18.5361C115.762 19.3506 116.104 20.5166 116.104 22.0342V22.7109H109.662C109.686 23.6484 109.958 24.4072 110.479 24.9873C111.007 25.5615 111.675 25.8486 112.483 25.8486C113.058 25.8486 113.544 25.7314 113.942 25.4971C114.341 25.2627 114.689 24.9521 114.988 24.5654L115.981 25.3389C115.185 26.5635 113.989 27.1758 112.396 27.1758ZM112.193 18.6504C111.537 18.6504 110.986 18.8906 110.541 19.3711C110.096 19.8457 109.82 20.5137 109.715 21.375H114.479V21.252C114.432 20.4258 114.209 19.7871 113.811 19.3359C113.412 18.8789 112.873 18.6504 112.193 18.6504ZM123.531 24.4775C123.531 24.0381 123.364 23.6982 123.03 23.458C122.702 23.2119 122.125 23.001 121.299 22.8252C120.479 22.6494 119.825 22.4385 119.339 22.1924C118.858 21.9463 118.501 21.6533 118.267 21.3135C118.038 20.9736 117.924 20.5693 117.924 20.1006C117.924 19.3213 118.252 18.6621 118.908 18.123C119.57 17.584 120.414 17.3145 121.439 17.3145C122.518 17.3145 123.391 17.5928 124.059 18.1494C124.732 18.7061 125.069 19.418 125.069 20.2852H123.435C123.435 19.8398 123.244 19.4561 122.863 19.1338C122.488 18.8115 122.014 18.6504 121.439 18.6504C120.848 18.6504 120.385 18.7793 120.051 19.0371C119.717 19.2949 119.55 19.6318 119.55 20.0479C119.55 20.4404 119.705 20.7363 120.016 20.9355C120.326 21.1348 120.886 21.3252 121.694 21.5068C122.509 21.6885 123.168 21.9053 123.672 22.1572C124.176 22.4092 124.548 22.7139 124.788 23.0713C125.034 23.4229 125.157 23.8535 125.157 24.3633C125.157 25.2129 124.817 25.8955 124.138 26.4111C123.458 26.9209 122.576 27.1758 121.492 27.1758C120.73 27.1758 120.057 27.041 119.471 26.7715C118.885 26.502 118.425 26.127 118.091 25.6465C117.763 25.1602 117.599 24.6357 117.599 24.0732H119.225C119.254 24.6182 119.471 25.0518 119.875 25.374C120.285 25.6904 120.824 25.8486 121.492 25.8486C122.107 25.8486 122.6 25.7256 122.969 25.4795C123.344 25.2275 123.531 24.8936 123.531 24.4775ZM127.311 26.1475C127.311 25.8662 127.393 25.6318 127.557 25.4443C127.727 25.2568 127.979 25.1631 128.312 25.1631C128.646 25.1631 128.898 25.2568 129.068 25.4443C129.244 25.6318 129.332 25.8662 129.332 26.1475C129.332 26.417 129.244 26.6426 129.068 26.8242C128.898 27.0059 128.646 27.0967 128.312 27.0967C127.979 27.0967 127.727 27.0059 127.557 26.8242C127.393 26.6426 127.311 26.417 127.311 26.1475ZM133.788 27H132.162V17.4902H133.788V27ZM132.03 14.9678C132.03 14.7041 132.109 14.4814 132.268 14.2998C132.432 14.1182 132.672 14.0273 132.988 14.0273C133.305 14.0273 133.545 14.1182 133.709 14.2998C133.873 14.4814 133.955 14.7041 133.955 14.9678C133.955 15.2314 133.873 15.4512 133.709 15.627C133.545 15.8027 133.305 15.8906 132.988 15.8906C132.672 15.8906 132.432 15.8027 132.268 15.627C132.109 15.4512 132.03 15.2314 132.03 14.9678ZM137.937 17.4902L137.989 18.6855C138.716 17.7715 139.665 17.3145 140.837 17.3145C142.847 17.3145 143.86 18.4482 143.878 20.7158V27H142.252V20.707C142.246 20.0215 142.088 19.5146 141.777 19.1865C141.473 18.8584 140.995 18.6943 140.345 18.6943C139.817 18.6943 139.354 18.835 138.956 19.1162C138.558 19.3975 138.247 19.7666 138.024 20.2236V27H136.398V17.4902H137.937ZM147.13 27V18.7471H145.627V17.4902H147.13V16.5146C147.13 15.4951 147.402 14.707 147.947 14.1504C148.492 13.5938 149.263 13.3154 150.259 13.3154C150.634 13.3154 151.006 13.3652 151.375 13.4648L151.287 14.7832C151.012 14.7305 150.719 14.7041 150.408 14.7041C149.881 14.7041 149.474 14.8594 149.187 15.1699C148.899 15.4746 148.756 15.9141 148.756 16.4883V17.4902H150.786V18.7471H148.756V27H147.13ZM152.157 22.1572C152.157 21.2256 152.339 20.3877 152.702 19.6436C153.071 18.8994 153.581 18.3252 154.231 17.9209C154.888 17.5166 155.635 17.3145 156.473 17.3145C157.768 17.3145 158.813 17.7627 159.61 18.6592C160.413 19.5557 160.814 20.748 160.814 22.2363V22.3506C160.814 23.2764 160.636 24.1084 160.278 24.8467C159.927 25.5791 159.42 26.1504 158.758 26.5605C158.102 26.9707 157.346 27.1758 156.49 27.1758C155.201 27.1758 154.155 26.7275 153.353 25.8311C152.556 24.9346 152.157 23.748 152.157 22.2715V22.1572ZM153.792 22.3506C153.792 23.4053 154.035 24.252 154.521 24.8906C155.014 25.5293 155.67 25.8486 156.49 25.8486C157.316 25.8486 157.973 25.5264 158.459 24.8818C158.945 24.2314 159.188 23.3232 159.188 22.1572C159.188 21.1143 158.939 20.2705 158.441 19.626C157.949 18.9756 157.293 18.6504 156.473 18.6504C155.67 18.6504 155.022 18.9697 154.53 19.6084C154.038 20.2471 153.792 21.1611 153.792 22.3506Z" fill="#F5F7FA"/>
</svg>
